<svg xmlns="http://www.w3.org/2000/svg" viewBox="0 0 192 192" width="192" height="192">
  <defs>
    <linearGradient id="bgGradient" x1="0%" y1="0%" x2="100%" y2="100%">
      <stop offset="0%" stop-color="#6a0dad" />
      <stop offset="50%" stop-color="#8a2be2" />
      <stop offset="100%" stop-color="#00ffff" />
    </linearGradient>
    <linearGradient id="accentGradient" x1="0%" y1="0%" x2="100%" y2="100%">
      <stop offset="0%" stop-color="#ff00ff" />
      <stop offset="100%" stop-color="#00ffff" />
    </linearGradient>
    <filter id="glow" x="-50%" y="-50%" width="200%" height="200%">
      <feGaussianBlur in="SourceAlpha" stdDeviation="3" result="blur"/>
      <feFlood flood-color="#6a0dad" flood-opacity="0.8" result="glowColor"/>
      <feComposite in="glowColor" in2="blur" operator="in" result="glow"/>
      <feMerge>
        <feMergeNode in="glow"/>
        <feMergeNode in="SourceGraphic"/>
      </feMerge>
    </filter>
    <radialGradient id="sphereGradient" cx="30%" cy="30%" r="70%">
      <stop offset="0%" stop-color="#ffffff" stop-opacity="0.8"/>
      <stop offset="100%" stop-color="#6a0dad" stop-opacity="0.5"/>
    </radialGradient>
  </defs>
  
  <!-- Background circle with gradient -->
  <circle cx="96" cy="96" r="90" fill="url(#bgGradient)" />
  
  <!-- Inner glowing circle -->
  <circle cx="96" cy="96" r="70" fill="none" stroke="url(#accentGradient)" stroke-width="2" filter="url(#glow)" />
  
  <!-- 3D sphere element -->
  <circle cx="96" cy="96" r="40" fill="url(#sphereGradient)" />
  
  <!-- Abstract person icon -->
  <g transform="translate(96, 96) scale(0.8)">
    <!-- Head -->
    <circle cx="0" cy="-25" r="15" fill="white" />
    
    <!-- Body -->
    <rect x="-10" y="-10" width="20" height="30" rx="10" fill="white" />
    
    <!-- Arms -->
    <rect x="-25" y="-5" width="15" height="5" rx="2" fill="white" transform="rotate(-20 -25 -5)" />
    <rect x="10" y="-5" width="15" height="5" rx="2" fill="white" transform="rotate(20 20 -5)" />
    
    <!-- Legs -->
    <rect x="-8" y="20" width="6" height="15" rx="3" fill="white" />
    <rect x="2" y="20" width="6" height="15" rx="3" fill="white" />
  </g>
  
  <!-- Decorative elements -->
  <circle cx="40" cy="40" r="5" fill="#00ffff" opacity="0.7" />
  <circle cx="150" cy="30" r="3" fill="#ff00ff" opacity="0.7" />
  <circle cx="30" cy="150" r="4" fill="#00ffff" opacity="0.7" />
  <circle cx="160" cy="160" r="6" fill="#ff00ff" opacity="0.7" />
  
  <!-- Hexagon frame -->
  <polygon points="96,10 148,40 148,100 96,130 44,100 44,40" 
           fill="none" 
           stroke="url(#accentGradient)" 
           stroke-width="2" 
           opacity="0.5" 
           transform="rotate(30 96 96)" />
</svg>